<?xml version="1.0" standalone="no"?>
<!DOCTYPE svg PUBLIC "-//W3C//DTD SVG 20010904//EN"
 "http://www.w3.org/TR/2001/REC-SVG-20010904/DTD/svg10.dtd">
<svg version="1.0" xmlns="http://www.w3.org/2000/svg"
 width="512.000000pt" height="512.000000pt" viewBox="0 0 512.000000 512.000000"
 preserveAspectRatio="xMidYMid meet">
<g transform="translate(0.000000,512.000000) scale(0.100000,-0.100000)"
fill="#4bff21" stroke="none">
<path d="M2330 5114 c-19 -2 -84 -9 -145 -15 -907 -93 -1701 -707 -2006 -1551
-88 -244 -134 -479 -154 -783 -15 -237 6 -557 51 -770 177 -832 722 -1516
1464 -1836 244 -105 477 -165 760 -195 141 -15 509 -6 655 15 850 126 1588
639 2010 1396 244 438 367 930 367 1465 0 535 -123 1027 -367 1465 -422 757
-1160 1271 -2010 1396 -138 21 -513 29 -625 13z"/>
</g>
</svg>
